<svg width="30" height="30" viewBox="0 0 30 30" fill="none" xmlns="http://www.w3.org/2000/svg">
<path fill-rule="evenodd" clip-rule="evenodd" d="M15 27C21.6274 27 27 21.6274 27 15C27 8.37258 21.6274 3 15 3C8.37258 3 3 8.37258 3 15C3 21.6274 8.37258 27 15 27ZM20.718 13.2926C20.9743 11.5524 19.6079 10.6061 17.73 9.94229L18.3145 7.58147L16.8303 7.21338L16.2608 9.51389C16.1636 9.48923 16.0671 9.46438 15.9709 9.43961L15.9708 9.43957C15.6777 9.36406 15.3879 9.28939 15.0915 9.2239L15.661 6.92339L14.1355 6.54507L13.566 8.84558L10.5381 8.09463L10.1496 9.66846C10.1496 9.66846 11.2715 9.91636 11.2315 9.93675C11.8328 10.0975 11.9452 10.4813 11.9209 10.7718L11.2415 13.4474L10.3105 17.2126C10.2339 17.3904 10.0416 17.6424 9.63037 17.5421C9.64796 17.5597 8.53826 17.2577 8.53826 17.2577L7.86155 18.9114L10.8014 19.7045L10.22 22.0531L11.6948 22.4189L12.2762 20.0703C12.5139 20.1375 12.7537 20.1937 12.9859 20.2482C13.1596 20.2889 13.3289 20.3287 13.4898 20.3712L12.9084 22.7198L14.3859 23.0863L14.9673 20.7377C17.5065 21.2384 19.408 21.0851 20.1948 18.866C20.8278 17.0969 20.1576 16.0611 18.8071 15.3549C19.8008 15.1616 20.5228 14.5591 20.718 13.2926ZM13.8911 13.584L13.817 13.5622L14.5208 10.7394C14.6054 10.7612 14.7133 10.7857 14.8383 10.8141L14.8384 10.8141C15.8965 11.0542 18.1739 11.5711 17.8075 13.058C17.4132 14.622 14.7794 13.8458 13.8911 13.584ZM12.6648 18.1659L12.7935 18.2033C13.8877 18.5228 16.9929 19.4295 17.3652 17.8766C17.7518 16.382 14.9649 15.7228 13.7172 15.4276L13.7172 15.4276C13.5804 15.3953 13.4622 15.3673 13.3686 15.3431L12.6648 18.1659Z" fill="#323232"/>
</svg>

