<?xml version="1.0" encoding="utf-8"?>
<!-- Generator: Adobe Illustrator 16.0.0, SVG Export Plug-In . SVG Version: 6.00 Build 0)  -->
<!DOCTYPE svg PUBLIC "-//W3C//DTD SVG 1.1//EN" "http://www.w3.org/Graphics/SVG/1.1/DTD/svg11.dtd">
<svg version="1.1" id="Layer_1" xmlns="http://www.w3.org/2000/svg" x="0px" y="0px"
     width="538.622px" height="95.392px" viewBox="0 0 538.622 95.392" enable-background="new 0 0 538.622 95.392"
     xml:space="preserve">
<g>
	<g>
		<path fill="#F3A61F" d="M358.04,64.129c0.99,0,1.807-0.275,2.448-0.827c0.643-0.552,1.064-1.368,1.268-2.449l4.628-26.212h19.828
			l-5.27,29.894c-0.608,3.424-1.842,6.34-3.699,8.75c-1.858,2.409-4.132,4.228-6.823,5.455s-5.591,1.84-8.698,1.84h-12.329
			l2.905-16.45H358.04z"/>
		<path fill="#F3A61F" d="M410.769,80.579l-0.236-4.256h-10.438l-1.554,4.256h-20.268l21.281-45.938h24.996l5.101,45.938H410.769z
			 M404.689,63.656h5.167l-0.54-10.37l0.067-2.061h-0.305l-0.641,2.061L404.689,63.656z"/>
		<path fill="#F3A61F" d="M442.318,79.481c-3.4-1.564-6.058-3.845-7.972-6.84s-2.871-6.587-2.871-10.775
			c0-5.021,1.216-9.711,3.648-14.069c2.432-4.357,5.928-7.854,10.487-10.488c4.562-2.635,9.881-3.952,15.961-3.952
			c4.594,0,8.513,0.834,11.756,2.5c3.242,1.667,5.685,3.925,7.329,6.772c1.644,2.85,2.467,6.029,2.467,9.542
			c0,1.172-0.079,2.275-0.237,3.312h-19.288c-0.09-1.262-0.603-2.275-1.537-3.041c-0.935-0.765-2.099-1.148-3.495-1.148
			c-1.284,0-2.455,0.321-3.513,0.963c-1.059,0.642-1.893,1.515-2.5,2.618c-0.608,1.104-0.912,2.319-0.912,3.647
			c0,1.036,0.23,1.965,0.692,2.787c0.461,0.822,1.08,1.458,1.857,1.908c0.777,0.451,1.639,0.676,2.585,0.676
			c1.306,0,2.521-0.383,3.648-1.148c1.125-0.766,1.879-1.79,2.263-3.073h19.423c-0.991,4.909-2.911,9.024-5.76,12.346
			s-6.216,5.788-10.1,7.397c-3.885,1.61-7.944,2.415-12.178,2.415C449.637,81.829,445.719,81.047,442.318,79.481z"/>
		<path fill="#F3A61F" d="M538.622,34.641l-15.1,22.361l7.397,23.577h-20.672l-3.479-10.91l-3.275,1.892l-1.588,9.019h-19.863
			l8.107-45.938h19.862l-2.871,16.314l10.134-16.314H538.622z"/>
	</g>
	<g>
		<path fill="#F3A61F" d="M32.191,34.641c5.765,0,10.021,0.89,12.769,2.668c2.747,1.779,4.121,4.55,4.121,8.31
			c0,1.441-0.254,2.878-0.76,4.307c-0.507,1.431-1.268,2.72-2.28,3.868c-1.014,1.148-2.252,2.016-3.716,2.601
			c1.688,0.653,3.051,1.7,4.087,3.142s1.555,3.153,1.555,5.135c0,2.793-0.727,5.387-2.179,7.786
			c-1.453,2.398-3.801,4.352-7.044,5.86c-3.242,1.509-7.397,2.263-12.464,2.263H0l8.106-45.938H32.191z M28.341,66.882
			c0.473-0.754,0.709-1.592,0.709-2.517c0-0.652-0.181-1.165-0.54-1.537c-0.36-0.371-0.891-0.557-1.588-0.557H22.43l-1.014,5.742
			h4.594C27.091,68.014,27.868,67.637,28.341,66.882z M30.013,51.884c0.484-0.663,0.727-1.423,0.727-2.279
			c0-0.563-0.152-1.019-0.456-1.368c-0.305-0.35-0.749-0.523-1.335-0.523h-3.952l-0.911,5.168h4.02
			C28.892,52.881,29.528,52.549,30.013,51.884z"/>
		<path fill="#F3A61F" d="M57.019,34.641h19.862l-5.202,29.488H84.92l-2.904,16.45H48.912L57.019,34.641z"/>
		<path fill="#F3A61F" d="M115.625,80.579l-0.235-4.256h-10.438l-1.554,4.256H83.13l21.281-45.938h24.996l5.101,45.938H115.625z
			 M109.546,63.656h5.168l-0.541-10.37l0.067-2.061h-0.304l-0.642,2.061L109.546,63.656z"/>
		<path fill="#F3A61F" d="M147.175,79.481c-3.4-1.564-6.059-3.845-7.972-6.84c-1.915-2.995-2.871-6.587-2.871-10.775
			c0-5.021,1.216-9.711,3.647-14.069c2.433-4.357,5.929-7.854,10.489-10.488c4.56-2.635,9.88-3.952,15.96-3.952
			c4.594,0,8.513,0.834,11.755,2.5c3.243,1.667,5.687,3.925,7.33,6.772c1.644,2.85,2.466,6.029,2.466,9.542
			c0,1.172-0.079,2.275-0.236,3.312h-19.287c-0.091-1.262-0.604-2.275-1.537-3.041c-0.935-0.765-2.1-1.148-3.496-1.148
			c-1.283,0-2.455,0.321-3.514,0.963s-1.892,1.515-2.499,2.618c-0.608,1.104-0.912,2.319-0.912,3.647
			c0,1.036,0.23,1.965,0.692,2.787c0.461,0.822,1.081,1.458,1.857,1.908c0.777,0.451,1.639,0.676,2.585,0.676
			c1.306,0,2.521-0.383,3.647-1.148s1.88-1.79,2.264-3.073h19.423c-0.991,4.909-2.911,9.024-5.76,12.346s-6.216,5.788-10.1,7.397
			c-3.885,1.61-7.944,2.415-12.178,2.415C154.493,81.829,150.575,81.047,147.175,79.481z"/>
		<path fill="#F3A61F" d="M243.479,34.641L228.38,57.002l7.397,23.577h-20.673l-3.479-10.91l-3.276,1.892l-1.588,9.019h-19.862
			l8.107-45.938h19.862l-2.871,16.314l10.133-16.314H243.479z"/>
	</g>
	<g>
		<g>
			<g>
				<path fill="#F3A61F" d="M266.349,75.95h0.403h10.014h3.16l0.851-2.567l2.754-8.336l3.699-11.185h-3.163h-6.839h-2.406h-6.464
					l3.417-3.331l2.31-2.252l4.745-4.625l29.862-29.108l-9.623,29.108h3.16h14.997l-10.471,10.208l-19.059,18.575l-0.969,0.945
					l-2.634,2.567l-7.834,7.638l-12.111,11.804h39.84h2.043l-6.65-11.804l-4.304-7.638h17.214h8.348c0,0,1.2,0.004,1.602,0
					c0.776-0.007,1.514-0.059,1.747-0.077c3.828-0.346,7.333-1.804,10.191-4.055c4.502-3.537,7.399-9.032,7.399-15.203
					c0-2.287-0.237-4.876-1.24-7.696c-1.083-3.058-3.975-7.377-5.607-9.599C326.966,28.756,305.685,0,305.685,0
					s-33.771,26.646-47.467,37.627c-2.895,2.32-6.042,5.202-8.26,8.348c-2.167,3.067-3.795,6.599-3.795,10.641
					c0,0.456,0.021,0.905,0.053,1.356c0.292,4.203,1.925,8.037,4.479,11.075c2.983,3.55,7.221,6.01,12.028,6.702
					c0.269,0.036,0.538,0.067,0.813,0.097C264.104,75.912,266.349,75.95,266.349,75.95z"/>
			</g>
		</g>
	</g>
</g>
</svg>
