<?xml version="1.0" encoding="UTF-8" standalone="no"?>
<svg
  viewBox="0 0 630 363"
  fill="none"
  version="1.1"
  id="svg107"
  sodipodi:docname="table draft 2.svg"
  inkscape:version="1.1.1 (3bf5ae0d25, 2021-09-20)"
  xmlns:inkscape="http://www.inkscape.org/namespaces/inkscape"
  xmlns:sodipodi="http://sodipodi.sourceforge.net/DTD/sodipodi-0.dtd"
  xmlns="http://www.w3.org/2000/svg"
>
  <sodipodi:namedview
     id="namedview109"
     pagecolor="#ffffff"
     bordercolor="#666666"
     borderopacity="1.0"
     inkscape:pageshadow="2"
     inkscape:pageopacity="0.0"
     inkscape:pagecheckerboard="0"
     showgrid="false"
     inkscape:zoom="0.22791045"
     inkscape:cx="344.43353"
     inkscape:cy="182.08906"
     inkscape:window-width="1280"
     inkscape:window-height="737"
     inkscape:window-x="-8"
     inkscape:window-y="-8"
     inkscape:window-maximized="1"
     inkscape:current-layer="svg107" />
  <g
     opacity="0.25"
     filter="url(#filter0_f_51_582)"
     id="g4"
     transform="matrix(1.2228632,0,0,1.2228632,-70.132866,-40.352011)">
    <rect
       x="74"
       y="73.802101"
       width="481.38"
       height="214.52"
       rx="107.26"
       fill="#333333"
       id="rect2" />
  </g>
  <rect
     x="12.743935"
     y="47.843212"
     width="599.66815"
     height="266.40076"
     rx="133.20103"
     fill="#363d6b"
     id="rect6"
     style="stroke-width:1.31415" />
  <g
     filter="url(#filter1_i_51_582)"
     id="g10"
     transform="matrix(1.314151,0,0,1.314151,-94.190904,-40.932817)">
    <rect
       x="84.320801"
       y="67.553902"
       width="456.31601"
       height="203.412"
       rx="101.706"
       fill="#363d6b"
       id="rect8" />
  </g>
  <g
     opacity="0.1"
     id="g18"
     transform="matrix(1.314151,0,0,1.314151,-94.190904,-40.932817)">
    <g
       filter="url(#filter2_i_51_582)"
       id="g14">
      <rect
         x="121.18"
         y="86.992599"
         width="382.59799"
         height="164.534"
         rx="82.267197"
         fill="#363d6b"
         id="rect12" />
    </g>
    <rect
       x="121.549"
       y="87.361099"
       width="381.86099"
       height="163.797"
       rx="81.898598"
       stroke="#ffffff"
       stroke-width="0.737183"
       id="rect16" />
  </g>
  <g
     opacity="0.1"
     id="g26"
     transform="matrix(1.314151,0,0,1.314151,-94.190904,-40.932817)">
    <g
       filter="url(#filter3_i_51_582)"
       id="g22">
      <rect
         x="125.013"
         y="90.463699"
         width="374.931"
         height="157.592"
         rx="78.795998"
         fill="#363d6b"
         id="rect20" />
    </g>
    <rect
       x="125.382"
       y="90.832298"
       width="374.19299"
       height="156.855"
       rx="78.427399"
       stroke="#ffffff"
       stroke-width="0.737183"
       id="rect24" />
  </g>
  <g
     filter="url(#filter4_d_51_582)"
     id="g30"
     transform="matrix(1.314151,0,0,1.314151,-94.190904,-40.932817)">
    <path
       d="m 187.964,62 c 0,2.2115 0,3.0962 0,3.0962 0,0.8846 0,2.2115 0,3.0961 0,0.8846 0,2.2116 0,3.0962 0,0 0,0.8846 0,3.0961 164.545,0 246.818,0 246.818,0 25.387,0 50.304,9.7308 68.169,26.5384 17.865,16.808 28.208,40.25 28.208,64.135 0,2.654 0,5.75 0,8.404 0,23.884 -10.343,47.327 -28.208,64.134 -17.865,16.808 -42.782,26.539 -68.169,26.539 -82.273,0 -164.546,0 -246.818,0 -25.388,0 -50.304,-9.731 -68.169,-26.539 -17.865,-16.807 -28.2082,-40.25 -28.2082,-64.134 0,-2.654 0,-5.75 0,-8.404 0,0 0,-3.096 0.4701,-8.846 0.9402,-5.75 1.8805,-15.039 7.0519,-25.654 4.7012,-11.058 13.6342,-23.885 27.7382,-35.3849 14.574,-11.0577 35.729,-20.3462 61.117,-20.7885 0,-2.2115 0,-3.0961 0,-3.0961 0,-0.8846 0,-2.2116 0,-3.0962 0,-0.8846 0,-2.2115 0,-3.0961 0,0 0,-1.327 0,-3.0962 -14.104,0 -27.738,2.6538 -39.491,7.0769 C 136.719,73.5 126.847,79.25 118.384,85.4423 101.93,98.7116 92.0569,113.308 86.8854,125.692 c -5.6415,12.385 -6.5818,22.558 -7.9922,29.193 -0.4701,6.634 -0.4701,10.173 -0.4701,10.173 0,2.654 0,5.75 0,8.404 0,26.981 11.7533,53.961 31.9689,72.981 20.216,19.019 48.894,30.077 77.572,30.077 82.272,0 164.545,0 246.818,0 28.678,0 57.356,-11.058 77.572,-30.077 20.215,-19.02 31.969,-46 31.969,-72.981 0,-2.654 0,-5.75 0,-8.404 0,-26.981 -11.754,-53.962 -31.969,-72.981 C 492.138,73.0577 463.46,62 434.782,62 c -0.47,0 -82.743,0 -246.818,0 z"
       fill="#232848"
       id="path28" />
  </g>
  <defs
     id="defs105">
    <filter
       id="filter0_f_51_582"
       x="0.281715"
       y="0.0838089"
       width="628.817"
       height="361.956"
       filterUnits="userSpaceOnUse"
       color-interpolation-filters="sRGB">
      <feFlood
         flood-opacity="0"
         result="BackgroundImageFix"
         id="feFlood32" />
      <feBlend
         mode="normal"
         in="SourceGraphic"
         in2="BackgroundImageFix"
         result="shape"
         id="feBlend34" />
      <feGaussianBlur
         stdDeviation="36.8591"
         result="effect1_foregroundBlur_51_582"
         id="feGaussianBlur36" />
    </filter>
    <filter
       id="filter1_i_51_582"
       x="84.3208"
       y="67.5539"
       width="456.316"
       height="206.36"
       filterUnits="userSpaceOnUse"
       color-interpolation-filters="sRGB">
      <feFlood
         flood-opacity="0"
         result="BackgroundImageFix"
         id="feFlood39" />
      <feBlend
         mode="normal"
         in="SourceGraphic"
         in2="BackgroundImageFix"
         result="shape"
         id="feBlend41" />
      <feColorMatrix
         in="SourceAlpha"
         type="matrix"
         values="0 0 0 0 0 0 0 0 0 0 0 0 0 0 0 0 0 0 127 0"
         result="hardAlpha"
         id="feColorMatrix43" />
      <feOffset
         dy="2.94873"
         id="feOffset45" />
      <feGaussianBlur
         stdDeviation="1.47437"
         id="feGaussianBlur47" />
      <feComposite
         in2="hardAlpha"
         operator="arithmetic"
         k2="-1"
         k3="1"
         id="feComposite49" />
      <feColorMatrix
         type="matrix"
         values="0 0 0 0 0 0 0 0 0 0 0 0 0 0 0 0 0 0 0.25 0"
         id="feColorMatrix51" />
      <feBlend
         mode="normal"
         in2="shape"
         result="effect1_innerShadow_51_582"
         id="feBlend53" />
    </filter>
    <filter
       id="filter2_i_51_582"
       x="121.18"
       y="86.9926"
       width="382.598"
       height="167.483"
       filterUnits="userSpaceOnUse"
       color-interpolation-filters="sRGB">
      <feFlood
         flood-opacity="0"
         result="BackgroundImageFix"
         id="feFlood56" />
      <feBlend
         mode="normal"
         in="SourceGraphic"
         in2="BackgroundImageFix"
         result="shape"
         id="feBlend58" />
      <feColorMatrix
         in="SourceAlpha"
         type="matrix"
         values="0 0 0 0 0 0 0 0 0 0 0 0 0 0 0 0 0 0 127 0"
         result="hardAlpha"
         id="feColorMatrix60" />
      <feOffset
         dy="2.94873"
         id="feOffset62" />
      <feGaussianBlur
         stdDeviation="1.47437"
         id="feGaussianBlur64" />
      <feComposite
         in2="hardAlpha"
         operator="arithmetic"
         k2="-1"
         k3="1"
         id="feComposite66" />
      <feColorMatrix
         type="matrix"
         values="0 0 0 0 0 0 0 0 0 0 0 0 0 0 0 0 0 0 0.25 0"
         id="feColorMatrix68" />
      <feBlend
         mode="normal"
         in2="shape"
         result="effect1_innerShadow_51_582"
         id="feBlend70" />
    </filter>
    <filter
       id="filter3_i_51_582"
       x="125.013"
       y="90.4637"
       width="374.931"
       height="160.541"
       filterUnits="userSpaceOnUse"
       color-interpolation-filters="sRGB">
      <feFlood
         flood-opacity="0"
         result="BackgroundImageFix"
         id="feFlood73" />
      <feBlend
         mode="normal"
         in="SourceGraphic"
         in2="BackgroundImageFix"
         result="shape"
         id="feBlend75" />
      <feColorMatrix
         in="SourceAlpha"
         type="matrix"
         values="0 0 0 0 0 0 0 0 0 0 0 0 0 0 0 0 0 0 127 0"
         result="hardAlpha"
         id="feColorMatrix77" />
      <feOffset
         dy="2.94873"
         id="feOffset79" />
      <feGaussianBlur
         stdDeviation="1.47437"
         id="feGaussianBlur81" />
      <feComposite
         in2="hardAlpha"
         operator="arithmetic"
         k2="-1"
         k3="1"
         id="feComposite83" />
      <feColorMatrix
         type="matrix"
         values="0 0 0 0 0 0 0 0 0 0 0 0 0 0 0 0 0 0 0.25 0"
         id="feColorMatrix85" />
      <feBlend
         mode="normal"
         in2="shape"
         result="effect1_innerShadow_51_582"
         id="feBlend87" />
    </filter>
    <filter
       id="filter4_d_51_582"
       x="71.0513"
       y="54.6282"
       width="480.643"
       height="229.263"
       filterUnits="userSpaceOnUse"
       color-interpolation-filters="sRGB">
      <feFlood
         flood-opacity="0"
         result="BackgroundImageFix"
         id="feFlood90" />
      <feColorMatrix
         in="SourceAlpha"
         type="matrix"
         values="0 0 0 0 0 0 0 0 0 0 0 0 0 0 0 0 0 0 127 0"
         result="hardAlpha"
         id="feColorMatrix92" />
      <feOffset
         id="feOffset94" />
      <feGaussianBlur
         stdDeviation="3.68591"
         id="feGaussianBlur96" />
      <feColorMatrix
         type="matrix"
         values="0 0 0 0 0 0 0 0 0 0 0 0 0 0 0 0 0 0 0.5 0"
         id="feColorMatrix98" />
      <feBlend
         mode="normal"
         in2="BackgroundImageFix"
         result="effect1_dropShadow_51_582"
         id="feBlend100" />
      <feBlend
         mode="normal"
         in="SourceGraphic"
         in2="effect1_dropShadow_51_582"
         result="shape"
         id="feBlend102" />
    </filter>
  </defs>
</svg>
